<svg width="56" height="56" viewBox="0 0 56 56" fill="none" xmlns="http://www.w3.org/2000/svg">
<circle opacity="0.05" cx="28" cy="28" r="28" fill="#B31E85"/>
<g clip-path="url(#clip0)">
<path d="M38.1596 36.5555H17.8401C16.3664 36.5555 15.1665 35.3556 15.1665 33.8819V22.118C15.1665 20.6443 16.3664 19.4444 17.8401 19.4444H38.1595C39.6332 19.4444 40.8331 20.6443 40.8331 22.118V33.8819C40.8332 35.3556 39.6333 36.5555 38.1596 36.5555ZM39.7637 22.118C39.7637 21.2336 39.044 20.5139 38.1596 20.5139H17.8401C16.9557 20.5139 16.2359 21.2336 16.2359 22.118V33.8819C16.2359 34.7663 16.9557 35.4861 17.8401 35.4861H38.1595C39.044 35.4861 39.7637 34.7663 39.7637 33.8819V22.118H39.7637Z" fill="#B31E85"/>
<path d="M40.2984 33.3473H15.7012C15.4061 33.3473 15.1665 33.1077 15.1665 32.8126V29.6042C15.1665 29.3091 15.4061 29.0695 15.7012 29.0695H40.2985C40.5936 29.0695 40.8332 29.3091 40.8332 29.6042V32.8126C40.8332 33.1077 40.5936 33.3473 40.2984 33.3473ZM39.7637 30.139H16.2359V32.2779H39.7637V30.139H39.7637Z" fill="#B31E85"/>
<path d="M25.3264 25.8612H18.9097C18.6146 25.8612 18.375 25.6216 18.375 25.3265C18.375 25.0313 18.6146 24.7918 18.9097 24.7918H25.3264C25.6216 24.7918 25.8611 25.0313 25.8611 25.3265C25.8611 25.6217 25.6216 25.8612 25.3264 25.8612Z" fill="#B31E85"/>
<path d="M25.3264 23.7223H18.9097C18.6146 23.7223 18.375 23.4827 18.375 23.1876C18.375 22.8924 18.6146 22.6528 18.9097 22.6528H25.3264C25.6216 22.6528 25.8611 22.8924 25.8611 23.1876C25.8611 23.4827 25.6216 23.7223 25.3264 23.7223Z" fill="#B31E85"/>
<path d="M36.0208 26.9305H34.9513C34.0669 26.9305 33.3472 26.2108 33.3472 25.3264V24.257C33.3472 23.3725 34.0669 22.6528 34.9513 22.6528H36.0208C36.9052 22.6528 37.6249 23.3725 37.6249 24.257V25.3264C37.6249 26.2108 36.9052 26.9305 36.0208 26.9305ZM36.5555 24.2569C36.5555 23.9617 36.3159 23.7222 36.0208 23.7222H34.9513C34.6562 23.7222 34.4166 23.9617 34.4166 24.2569V25.3263C34.4166 25.6215 34.6562 25.8611 34.9513 25.8611H36.0208C36.3159 25.8611 36.5555 25.6215 36.5555 25.3263V24.2569Z" fill="#B31E85"/>
</g>
<defs>
<clipPath id="clip0">
<rect width="25.6667" height="25.6667" fill="white" transform="matrix(1 0 0 -1 15.1665 40.8334)"/>
</clipPath>
</defs>
</svg>
