<svg width="56" height="56" viewBox="0 0 56 56" fill="none" xmlns="http://www.w3.org/2000/svg">
<circle opacity="0.05" cx="28" cy="28" r="28" fill="#B31E85"/>
<g clip-path="url(#clip0)">
<path d="M39.0364 26.7649L38.3717 24.1062C38.5534 24.0676 38.6898 23.9064 38.6898 23.7133V23.2846C38.6898 22.3539 37.9326 21.5967 37.0019 21.5967H33.9745V20.7125C33.9745 20.2545 33.6019 19.882 33.1439 19.882H17.7117C17.2537 19.882 16.8812 20.2545 16.8812 20.7125V27.9999C16.8812 28.2219 17.0611 28.4018 17.2831 28.4018C17.505 28.4018 17.6849 28.2219 17.6849 27.9999V20.7125C17.6849 20.6977 17.6969 20.6857 17.7117 20.6857H33.1438C33.1586 20.6857 33.1706 20.6977 33.1706 20.7125V28C33.1706 28.222 33.3505 28.4019 33.5725 28.4019C33.7944 28.4019 33.9744 28.222 33.9744 28V27.5445H38.7152C38.7156 27.5445 38.7159 27.5446 38.7162 27.5446C38.7166 27.5446 38.717 27.5445 38.7173 27.5445C39.3007 27.5449 39.796 27.9278 39.9662 28.4554H38.7165C38.4946 28.4554 38.3146 28.6353 38.3146 28.8573V29.7146C38.3146 30.409 38.8795 30.9739 39.5738 30.9739H40.0293V32.7421H38.9785C38.6333 31.7454 37.6858 31.0274 36.5732 31.0274C35.4605 31.0274 34.513 31.7454 34.1678 32.7421H33.9743V29.7146C33.9743 29.4927 33.7944 29.3127 33.5724 29.3127C33.3505 29.3127 33.1705 29.4926 33.1705 29.7146V32.742H24.8325C24.4873 31.7453 23.5398 31.0273 22.4271 31.0273C21.3145 31.0273 20.3669 31.7453 20.0218 32.742H17.7117C17.6969 32.742 17.6849 32.73 17.6849 32.7152V31.8311H19.4264C19.6483 31.8311 19.8283 31.6512 19.8283 31.4292C19.8283 31.2072 19.6484 31.0273 19.4264 31.0273H15.5684C15.3465 31.0273 15.1665 31.2072 15.1665 31.4292C15.1665 31.6512 15.3464 31.8311 15.5684 31.8311H16.8812V32.7152C16.8812 33.1732 17.2538 33.5458 17.7118 33.5458H19.8826C19.8825 33.5547 19.8819 33.5636 19.8819 33.5726C19.8819 34.976 21.0237 36.1178 22.4271 36.1178C23.8305 36.1178 24.9723 34.976 24.9723 33.5726C24.9723 33.5635 24.9717 33.5547 24.9716 33.5458H34.0286C34.0285 33.5547 34.0279 33.5636 34.0279 33.5726C34.0279 34.976 35.1698 36.1178 36.5732 36.1178C37.9765 36.1178 39.1184 34.976 39.1184 33.5726C39.1184 33.5635 39.1178 33.5547 39.1177 33.5458H40.4312C40.6532 33.5458 40.8331 33.3659 40.8331 33.1439V28.8572C40.8332 27.7989 40.0523 26.9195 39.0364 26.7649ZM33.9745 22.4004H37.0019C37.4894 22.4004 37.8861 22.7971 37.8861 23.2846V23.3114H33.9745V22.4004ZM33.9745 26.7407V24.1151H37.5455L38.2019 26.7407H33.9745ZM22.4271 35.3141C21.4669 35.3141 20.6856 34.533 20.6856 33.5727C20.6856 32.6124 21.4669 31.8312 22.4271 31.8312C23.3874 31.8312 24.1686 32.6124 24.1686 33.5727C24.1686 34.533 23.3874 35.3141 22.4271 35.3141ZM36.5733 35.3141C35.613 35.3141 34.8318 34.533 34.8318 33.5727C34.8318 32.6124 35.613 31.8312 36.5733 31.8312C37.5335 31.8312 38.3147 32.6124 38.3147 33.5727C38.3147 34.533 37.5335 35.3141 36.5733 35.3141ZM40.0294 30.1701H39.5739C39.3228 30.1701 39.1185 29.9657 39.1185 29.7146V29.2591H40.0294V30.1701H40.0294Z" fill="#B31E85"/>
<path d="M22.4267 32.7422C21.9688 32.7422 21.5962 33.1148 21.5962 33.5727C21.5962 34.0307 21.9688 34.4033 22.4267 34.4033C22.8847 34.4033 23.2573 34.0307 23.2573 33.5727C23.2573 33.1148 22.8847 32.7422 22.4267 32.7422Z" fill="#B31E85"/>
<path d="M36.5732 32.7422C36.1152 32.7422 35.7427 33.1148 35.7427 33.5727C35.7427 34.0307 36.1152 34.4033 36.5732 34.4033C37.0312 34.4033 37.4038 34.0307 37.4038 33.5727C37.4038 33.1148 37.0312 32.7422 36.5732 32.7422Z" fill="#B31E85"/>
<path d="M31.8579 31.0275H25.8565C25.6346 31.0275 25.4546 31.2074 25.4546 31.4294C25.4546 31.6513 25.6345 31.8313 25.8565 31.8313H31.8579C32.0798 31.8313 32.2598 31.6513 32.2598 31.4294C32.2598 31.2074 32.0798 31.0275 31.8579 31.0275Z" fill="#B31E85"/>
<path d="M21.5699 29.3127H16.4258C16.2039 29.3127 16.0239 29.4927 16.0239 29.7146C16.0239 29.9366 16.2038 30.1165 16.4258 30.1165H21.5699C21.7918 30.1165 21.9718 29.9366 21.9718 29.7146C21.9718 29.4927 21.7918 29.3127 21.5699 29.3127Z" fill="#B31E85"/>
<path d="M29.1415 23.8577C28.9846 23.7008 28.7301 23.7008 28.5732 23.8577L24.9993 27.4315L23.1401 25.5724C22.9832 25.4154 22.7287 25.4154 22.5718 25.5724C22.4149 25.7293 22.4149 25.9837 22.5718 26.1407L24.7152 28.2841C24.7936 28.3626 24.8965 28.4018 24.9993 28.4018C25.1021 28.4018 25.2051 28.3626 25.2835 28.2841L29.1415 24.426C29.2984 24.269 29.2984 24.0146 29.1415 23.8577Z" fill="#B31E85"/>
</g>
<defs>
<clipPath id="clip0">
<rect width="25.6667" height="25.6667" fill="white" transform="translate(15.1665 15.1666)"/>
</clipPath>
</defs>
</svg>
