<svg width="56" height="56" viewBox="0 0 56 56" fill="none" xmlns="http://www.w3.org/2000/svg">
<circle opacity="0.05" cx="28" cy="28" r="28" fill="#B31E85"/>
<g clip-path="url(#clip0)">
<path d="M39.9197 23.3265C39.7875 23.2488 39.624 23.2468 39.4899 23.3213L38.2973 23.9838L37.9667 12.4212C37.9601 12.1866 37.768 11.9999 37.5334 12H34.5C34.2654 11.9999 34.0732 12.1866 34.0667 12.4212L33.6628 26.56L32.3334 27.2967V23.7C32.3333 23.4607 32.1391 23.2668 31.8998 23.2669C31.8264 23.2669 31.7541 23.2856 31.6899 23.3213L24.5334 27.2967V23.7C24.5333 23.4607 24.3391 23.2668 24.0998 23.2669C24.0264 23.2669 23.9541 23.2856 23.8899 23.3213L16.0899 27.6546C15.9522 27.7309 15.8668 27.8759 15.8667 28.0333V37.5667C15.8667 37.806 16.0607 38 16.3 38H39.7C39.9393 38 40.1334 37.806 40.1334 37.5667V23.7C40.1334 23.5464 40.0521 23.4043 39.9197 23.3265ZM34.9212 12.8667H37.1122L37.1373 13.7333H34.8965L34.9212 12.8667ZM34.8714 14.6H37.162L37.4437 24.4579L34.5434 26.0686L34.8714 14.6ZM27.5667 37.1333H24.9667V34.9667H27.5667V37.1333ZM31.0334 37.1333H28.4334V34.9667H31.0334V37.1333ZM39.2667 37.1333H31.9V34.5333C31.9 34.294 31.706 34.1 31.4667 34.1H24.5334C24.2941 34.1 24.1 34.294 24.1 34.5333V37.1333H16.7334V28.2886L23.6667 24.4367V28.0333C23.6668 28.2726 23.8609 28.4666 24.1002 28.4665C24.1737 28.4664 24.246 28.4477 24.3102 28.4121L31.4667 24.4367V28.0333C31.4668 28.2726 31.6609 28.4666 31.9002 28.4665C31.9737 28.4664 32.046 28.4477 32.1102 28.4121L36.197 26.1418L38.0967 25.0867L39.2667 24.4367V37.1333Z" fill="#B31E85"/>
<path d="M21.9332 29.3334H18.4665C18.2272 29.3334 18.0332 29.5274 18.0332 29.7667V31.5C18.0332 31.7393 18.2272 31.9334 18.4665 31.9334H21.9332C22.1725 31.9334 22.3665 31.7393 22.3665 31.5V29.7667C22.3665 29.5274 22.1725 29.3334 21.9332 29.3334ZM21.4999 31.0667H18.8999V30.2H21.4999V31.0667Z" fill="#B31E85"/>
<path d="M29.7335 29.3334H26.2668C26.0275 29.3334 25.8335 29.5274 25.8335 29.7667V31.5C25.8335 31.7393 26.0275 31.9334 26.2668 31.9334H29.7335C29.9728 31.9334 30.1668 31.7393 30.1668 31.5V29.7667C30.1668 29.5274 29.9728 29.3334 29.7335 29.3334ZM29.3002 31.0667H26.7002V30.2H29.3002V31.0667Z" fill="#B31E85"/>
<path d="M37.5333 29.3334H34.0666C33.8273 29.3334 33.6333 29.5274 33.6333 29.7667V31.5C33.6333 31.7393 33.8273 31.9334 34.0666 31.9334H37.5333C37.7726 31.9334 37.9666 31.7393 37.9666 31.5V29.7667C37.9666 29.5274 37.7726 29.3334 37.5333 29.3334ZM37.1 31.0667H34.5V30.2H37.1V31.0667Z" fill="#B31E85"/>
</g>
<defs>
<clipPath id="clip0">
<rect width="26" height="26" fill="white" transform="translate(15 12)"/>
</clipPath>
</defs>
</svg>
