<svg width="56" height="62" viewBox="0 0 56 62" fill="none" xmlns="http://www.w3.org/2000/svg">
<circle opacity="0.05" cx="28" cy="31" r="28" fill="#B31E85"/>
<path d="M21.404 38.2C19.684 38.2 18.424 37.7 17.624 36.7C16.8373 35.6867 16.4173 34.3667 16.364 32.74L16.344 31.02L16.364 29.24C16.404 27.6267 16.824 26.32 17.624 25.32C18.4373 24.3067 19.6973 23.8 21.404 23.8C23.124 23.8 24.384 24.3067 25.184 25.32C25.9973 26.32 26.424 27.6267 26.464 29.24C26.4773 29.6133 26.484 30.2067 26.484 31.02C26.484 31.8067 26.4773 32.38 26.464 32.74C26.4107 34.3667 25.984 35.6867 25.184 36.7C24.3973 37.7 23.1373 38.2 21.404 38.2ZM21.404 36.54C22.4307 36.54 23.204 36.2 23.724 35.52C24.244 34.84 24.5173 33.88 24.544 32.64C24.5573 32.2533 24.564 31.7 24.564 30.98C24.564 30.2467 24.5573 29.7 24.544 29.34C24.5173 28.1133 24.2373 27.16 23.704 26.48C23.184 25.7867 22.4173 25.44 21.404 25.44C20.3907 25.44 19.624 25.7867 19.104 26.48C18.584 27.16 18.3107 28.1133 18.284 29.34L18.264 30.98L18.284 32.64C18.3107 33.88 18.584 34.84 19.104 35.52C19.624 36.2 20.3907 36.54 21.404 36.54ZM31.6002 31.02C30.7336 31.02 30.0469 30.7933 29.5402 30.34C29.0469 29.8733 28.7802 29.2333 28.7402 28.42C28.7269 28.1933 28.7202 27.9 28.7202 27.54C28.7202 27.1533 28.7269 26.84 28.7402 26.6C28.7802 25.7733 29.0402 25.12 29.5202 24.64C30.0002 24.1467 30.6936 23.9 31.6002 23.9C32.5069 23.9 33.2002 24.1467 33.6802 24.64C34.1736 25.12 34.4402 25.7733 34.4802 26.6C34.5069 27.08 34.5202 27.3933 34.5202 27.54C34.5202 27.6733 34.5069 27.9667 34.4802 28.42C34.4402 29.2333 34.1669 29.8733 33.6602 30.34C33.1536 30.7933 32.4669 31.02 31.6002 31.02ZM29.9202 38C29.8002 38 29.7002 37.9667 29.6202 37.9C29.5402 37.82 29.5002 37.72 29.5002 37.6C29.5002 37.52 29.5269 37.4467 29.5802 37.38L39.4602 24.38C39.5669 24.2333 39.6602 24.1333 39.7402 24.08C39.8336 24.0267 39.9602 24 40.1202 24H40.7602C40.8802 24 40.9736 24.04 41.0402 24.12C41.1202 24.1867 41.1602 24.28 41.1602 24.4C41.1602 24.48 41.1336 24.5533 41.0802 24.62L31.2202 37.62C31.1136 37.7533 31.0136 37.8533 30.9202 37.92C30.8402 37.9733 30.7202 38 30.5602 38H29.9202ZM31.6002 29.8C32.0802 29.8 32.4336 29.66 32.6602 29.38C32.8869 29.1 33.0202 28.7533 33.0602 28.34C33.0869 27.86 33.1002 27.58 33.1002 27.5C33.1002 27.38 33.0869 27.1067 33.0602 26.68C33.0336 26.2667 32.9002 25.92 32.6602 25.64C32.4336 25.3467 32.0802 25.2 31.6002 25.2C31.1202 25.2 30.7669 25.3467 30.5402 25.64C30.3136 25.92 30.1869 26.2667 30.1602 26.68C30.1469 26.8933 30.1402 27.1667 30.1402 27.5C30.1402 27.82 30.1469 28.1 30.1602 28.34C30.2002 28.74 30.3269 29.0867 30.5402 29.38C30.7669 29.66 31.1202 29.8 31.6002 29.8ZM39.0402 38.12C38.1736 38.12 37.4869 37.8733 36.9802 37.38C36.4869 36.8867 36.2202 36.2333 36.1802 35.42C36.1536 35.02 36.1402 34.7533 36.1402 34.62C36.1402 34.4867 36.1536 34.1533 36.1802 33.62C36.2202 32.7933 36.4802 32.14 36.9602 31.66C37.4402 31.1667 38.1336 30.92 39.0402 30.92C39.9469 30.92 40.6402 31.1667 41.1202 31.66C41.6136 32.14 41.8802 32.7933 41.9202 33.62C41.9469 34.1 41.9602 34.4067 41.9602 34.54C41.9602 34.6733 41.9469 34.9667 41.9202 35.42C41.8802 36.2333 41.6069 36.8867 41.1002 37.38C40.5936 37.8733 39.9069 38.12 39.0402 38.12ZM39.0402 36.82C39.5202 36.82 39.8736 36.68 40.1002 36.4C40.3269 36.12 40.4602 35.7733 40.5002 35.36C40.5269 34.88 40.5402 34.5933 40.5402 34.5C40.5402 34.3933 40.5269 34.1267 40.5002 33.7C40.4736 33.2867 40.3402 32.94 40.1002 32.66C39.8736 32.3667 39.5202 32.22 39.0402 32.22C38.5602 32.22 38.2069 32.3667 37.9802 32.66C37.7536 32.94 37.6269 33.2867 37.6002 33.7C37.5869 33.9133 37.5802 34.18 37.5802 34.5C37.5802 34.8333 37.5869 35.12 37.6002 35.36C37.6269 35.76 37.7536 36.1067 37.9802 36.4C38.2069 36.68 38.5602 36.82 39.0402 36.82Z" fill="#B31E85"/>
</svg>
