<svg width="56" height="56" viewBox="0 0 56 56" fill="none" xmlns="http://www.w3.org/2000/svg">
<circle opacity="0.05" cx="28" cy="28" r="28" fill="#B31E85"/>
<g clip-path="url(#clip0)">
<path d="M18.7625 26.5942C18.8771 26.64 19.0098 26.64 19.1243 26.585L22.701 24.9593C22.93 24.8494 23.0261 24.5746 22.9162 24.3456C22.8109 24.1258 22.5499 24.0251 22.3255 24.1258L19.8204 25.2661C21.0157 21.6895 24.345 19.299 28.1781 19.299C32.1944 19.299 35.7069 21.9826 36.719 25.8248C36.7831 26.0675 37.035 26.2141 37.2777 26.15C37.5204 26.0859 37.667 25.834 37.6028 25.5913C36.4854 21.3506 32.6111 18.3831 28.1781 18.3831C23.9512 18.3831 20.2738 21.0209 18.9457 24.9685L17.8924 22.3352C17.8146 22.0971 17.5535 21.9643 17.3154 22.0421C17.0772 22.12 16.9445 22.381 17.0223 22.6192C17.0269 22.6375 17.036 22.6558 17.0452 22.6741L18.5061 26.3377C18.5519 26.4523 18.6435 26.5484 18.7625 26.5942Z" fill="#B31E85"/>
<path d="M38.9722 33.3535C38.9676 33.3443 38.9631 33.3352 38.9631 33.326L37.5022 29.6624C37.4563 29.5479 37.3648 29.4517 37.2457 29.4059C37.1312 29.3601 36.9984 29.3647 36.8839 29.4151L33.3073 31.0408C33.0737 31.137 32.9638 31.4072 33.06 31.6408C33.1561 31.8743 33.4263 31.9842 33.6599 31.888C33.669 31.8835 33.6782 31.8789 33.6874 31.8743L36.1924 30.734C34.988 34.3106 31.654 36.7012 27.8255 36.7012C23.8092 36.7012 20.2967 34.0175 19.2846 30.1753C19.2205 29.9326 18.9687 29.786 18.726 29.8502C18.4832 29.9143 18.3367 30.1662 18.4008 30.4089C19.5137 34.6541 23.3926 37.6171 27.8256 37.6171C32.0525 37.6171 35.7253 34.9793 37.058 31.0317L38.1113 33.6649C38.1983 33.903 38.4593 34.0267 38.6974 33.9397C38.9355 33.8527 39.0592 33.5916 38.9722 33.3535Z" fill="#B31E85"/>
</g>
<defs>
<clipPath id="clip0">
<rect width="22" height="22" fill="white" transform="translate(17 17)"/>
</clipPath>
</defs>
</svg>
