<svg width="56" height="56" viewBox="0 0 56 56" fill="none" xmlns="http://www.w3.org/2000/svg">
<circle opacity="0.05" cx="28" cy="28" r="28" fill="#B31E85"/>
<path d="M36.0779 30.9665C37.0807 29.4434 37.6654 27.6217 37.6654 25.6656C37.6654 20.3359 33.3293 16 27.9996 16C22.67 16 18.334 20.3359 18.334 25.6656C18.334 27.6217 18.9187 29.4434 19.9214 30.9665L16.1406 36.4803L20.4669 35.6738L21.2736 40L24.8391 34.8C25.83 35.1439 26.8933 35.3312 27.9996 35.3312C29.1061 35.3312 30.1694 35.1439 31.1602 34.8L34.7258 40L35.5324 35.6738L39.8586 36.4803L36.0779 30.9665ZM22.0381 36.3837L21.5981 34.0238L19.2384 34.464L20.8307 32.1417C21.5933 32.985 22.5024 33.6933 23.5172 34.2269L22.0381 36.3837ZM19.7485 25.6656C19.7485 21.116 23.45 17.4145 27.9996 17.4145C32.5494 17.4145 36.2509 21.116 36.2509 25.6656C36.2509 30.2154 32.5494 33.9169 27.9996 33.9169C23.45 33.9169 19.7485 30.2154 19.7485 25.6656ZM34.4012 34.0238L33.9612 36.3837L32.4822 34.2269C33.497 33.6933 34.4061 32.985 35.1688 32.1417L36.761 34.4638L34.4012 34.0238Z" fill="#B31E85"/>
<path d="M26.2765 27.7883L23.9767 25.4886L22.9766 26.4888L26.2765 29.7887L33.0226 23.0427L32.0225 22.0426L26.2765 27.7883Z" fill="#B31E85"/>
</svg>
